STARTFONT 2.1
COMMENT $XConsortium: luIS12.bdf,v 1.7 94/04/02 15:59:48 gildea Exp $
COMMENT  (c) Copyright Bigelow & Holmes 1986, 1985. Lucida is a registered
COMMENT  trademark of Bigelow & Holmes. See LEGAL NOTICE file for terms 
COMMENT  of the license. 
COMMENT GRID 0012 0012 0200 0200
FONT -RFX-Serene-Medium-I-Normal-Sans-12-120-75-75-P-71-windows-1251
SIZE 12 72 72
FONTBOUNDINGBOX 15 13 -2 -2
STARTPROPERTIES 24
FONTNAME_REGISTRY ""
FOUNDRY "RFX"
FAMILY_NAME "Serene"
WEIGHT_NAME "Medium"
SLANT "I"
SETWIDTH_NAME "Normal"
ADD_STYLE_NAME "Sans"
PIXEL_SIZE 12
POINT_SIZE 120
RESOLUTION_X 75
RESOLUTION_Y 75
SPACING "P"
AVERAGE_WIDTH 71
CHARSET_REGISTRY "windows"
CHARSET_ENCODING "1251"
FONT_ASCENT 11
FONT_DESCENT 2
DEFAULT_CHAR 32
COPYRIGHT "Copyright Bigelow & Holmes 1986, 1985."
FACE_NAME "Lucida Sans Italic"
COPYRIGHT2 "Cyrillic and Euro glyphs copyright 2000 Dmitry Yu. Bolkhovityanov, bolkhov@inp.nsk.su"
SOURCEDATE "Mon Jul 24 13:36:28 2000"
PKGVERSION "1.1"
ASSEMBLER "cvtbdf.pl (Linux)"
ENDPROPERTIES
CHARS 244
STARTCHAR space
ENCODING 32
SWIDTH 316 0
DWIDTH 4 0
BBX 0 0 0 0
BITMAP
ENDCHAR
STARTCHAR exclam
ENCODING 33
SWIDTH 193 0
DWIDTH 3 0
BBX 3 9 0 0
BITMAP
20
20
20
40
40
40
00
80
80
ENDCHAR
STARTCHAR quotedbl
ENCODING 34
SWIDTH 361 0
DWIDTH 5 0
BBX 3 3 1 7
BITMAP
A0
A0
A0
ENDCHAR
STARTCHAR numbersign
ENCODING 35
SWIDTH 633 0
DWIDTH 8 0
BBX 8 9 0 0
BITMAP
12
12
7F
24
24
24
FE
48
48
ENDCHAR
STARTCHAR dollar
ENCODING 36
SWIDTH 633 0
DWIDTH 8 0
BBX 6 11 1 -1
BITMAP
10
38
54
50
50
30
28
28
A8
70
20
ENDCHAR
STARTCHAR percent
ENCODING 37
SWIDTH 741 0
DWIDTH 9 0
BBX 8 9 1 0
BITMAP
61
92
94
68
18
16
29
49
86
ENDCHAR
STARTCHAR ampersand
ENCODING 38
SWIDTH 701 0
DWIDTH 9 0
BBX 7 9 1 0
BITMAP
18
24
24
28
70
92
8A
8C
72
ENDCHAR
STARTCHAR quotesingle
ENCODING 39
SWIDTH 217 0
DWIDTH 3 0
BBX 1 3 1 7
BITMAP
80
80
80
ENDCHAR
STARTCHAR parenleft
ENCODING 40
SWIDTH 325 0
DWIDTH 4 0
BBX 4 11 1 -1
BITMAP
10
20
40
40
80
80
80
80
80
80
40
ENDCHAR
STARTCHAR parenright
ENCODING 41
SWIDTH 325 0
DWIDTH 4 0
BBX 4 11 -1 -1
BITMAP
20
10
10
10
10
10
10
20
20
40
80
ENDCHAR
STARTCHAR asterisk
ENCODING 42
SWIDTH 470 0
DWIDTH 6 0
BBX 6 5 0 4
BITMAP
10
54
30
A8
20
ENDCHAR
STARTCHAR plus
ENCODING 43
SWIDTH 633 0
DWIDTH 8 0
BBX 6 7 1 1
BITMAP
10
10
10
FC
20
20
20
ENDCHAR
STARTCHAR comma
ENCODING 44
SWIDTH 316 0
DWIDTH 3 0
BBX 2 3 0 -1
BITMAP
40
40
80
ENDCHAR
STARTCHAR minus
ENCODING 45
SWIDTH 633 0
DWIDTH 8 0
BBX 6 1 1 4
BITMAP
FC
ENDCHAR
STARTCHAR period
ENCODING 46
SWIDTH 316 0
DWIDTH 3 0
BBX 1 2 1 0
BITMAP
80
80
ENDCHAR
STARTCHAR slash
ENCODING 47
SWIDTH 482 0
DWIDTH 6 0
BBX 7 11 0 -1
BITMAP
02
02
04
08
08
10
20
20
40
80
80
ENDCHAR
STARTCHAR zero
ENCODING 48
SWIDTH 633 0
DWIDTH 8 0
BBX 6 9 1 0
BITMAP
38
44
44
44
84
88
88
88
70
ENDCHAR
STARTCHAR one
ENCODING 49
SWIDTH 633 0
DWIDTH 8 0
BBX 3 9 3 0
BITMAP
20
E0
20
20
60
40
40
40
40
ENDCHAR
STARTCHAR two
ENCODING 50
SWIDTH 633 0
DWIDTH 8 0
BBX 6 9 1 0
BITMAP
38
44
04
04
08
30
40
80
F8
ENDCHAR
STARTCHAR three
ENCODING 51
SWIDTH 633 0
DWIDTH 8 0
BBX 6 9 1 0
BITMAP
38
44
04
08
70
08
08
88
70
ENDCHAR
STARTCHAR four
ENCODING 52
SWIDTH 633 0
DWIDTH 8 0
BBX 6 9 1 0
BITMAP
18
28
28
48
88
FC
10
10
10
ENDCHAR
STARTCHAR five
ENCODING 53
SWIDTH 633 0
DWIDTH 8 0
BBX 6 9 1 0
BITMAP
3C
20
40
40
70
08
08
90
60
ENDCHAR
STARTCHAR six
ENCODING 54
SWIDTH 633 0
DWIDTH 8 0
BBX 6 9 1 0
BITMAP
18
24
40
40
70
88
88
88
70
ENDCHAR
STARTCHAR seven
ENCODING 55
SWIDTH 633 0
DWIDTH 8 0
BBX 6 9 1 0
BITMAP
7C
04
08
10
20
40
40
80
80
ENDCHAR
STARTCHAR eight
ENCODING 56
SWIDTH 633 0
DWIDTH 8 0
BBX 6 9 1 0
BITMAP
38
44
44
28
50
88
88
90
60
ENDCHAR
STARTCHAR nine
ENCODING 57
SWIDTH 633 0
DWIDTH 8 0
BBX 6 9 1 0
BITMAP
38
44
44
44
38
08
08
90
60
ENDCHAR
STARTCHAR colon
ENCODING 58
SWIDTH 316 0
DWIDTH 3 0
BBX 2 7 1 0
BITMAP
40
40
00
00
00
80
80
ENDCHAR
STARTCHAR semicolon
ENCODING 59
SWIDTH 316 0
DWIDTH 3 0
BBX 3 8 0 -1
BITMAP
20
20
00
00
00
40
40
80
ENDCHAR
STARTCHAR less
ENCODING 60
SWIDTH 633 0
DWIDTH 8 0
BBX 7 7 0 0
BITMAP
06
18
60
80
40
30
0C
ENDCHAR
STARTCHAR equal
ENCODING 61
SWIDTH 633 0
DWIDTH 8 0
BBX 7 3 1 3
BITMAP
7E
00
FC
ENDCHAR
STARTCHAR greater
ENCODING 62
SWIDTH 633 0
DWIDTH 8 0
BBX 7 7 1 0
BITMAP
60
18
04
02
0C
30
C0
ENDCHAR
STARTCHAR question
ENCODING 63
SWIDTH 464 0
DWIDTH 6 0
BBX 5 9 1 0
BITMAP
30
48
08
30
40
40
00
80
80
ENDCHAR
STARTCHAR at
ENCODING 64
SWIDTH 858 0
DWIDTH 11 0
BBX 8 9 2 0
BITMAP
1E
21
47
89
92
92
8D
40
3C
ENDCHAR
STARTCHAR A
ENCODING 65
SWIDTH 687 0
DWIDTH 8 0
BBX 6 9 1 0
BITMAP
04
0C
14
24
44
7C
84
84
84
ENDCHAR
STARTCHAR B
ENCODING 66
SWIDTH 593 0
DWIDTH 7 0
BBX 6 9 1 0
BITMAP
78
44
44
48
F8
84
84
88
F0
ENDCHAR
STARTCHAR C
ENCODING 67
SWIDTH 679 0
DWIDTH 8 0
BBX 7 9 1 0
BITMAP
0C
32
40
40
80
80
80
C4
78
ENDCHAR
STARTCHAR D
ENCODING 68
SWIDTH 743 0
DWIDTH 9 0
BBX 7 9 1 0
BITMAP
7C
46
42
42
C2
84
84
88
F0
ENDCHAR
STARTCHAR E
ENCODING 69
SWIDTH 547 0
DWIDTH 7 0
BBX 6 9 1 0
BITMAP
7C
40
40
40
F0
80
80
80
F8
ENDCHAR
STARTCHAR F
ENCODING 70
SWIDTH 536 0
DWIDTH 6 0
BBX 6 9 1 0
BITMAP
7C
40
40
40
F0
80
80
80
80
ENDCHAR
STARTCHAR G
ENCODING 71
SWIDTH 702 0
DWIDTH 9 0
BBX 7 9 1 0
BITMAP
0C
32
40
40
80
84
84
C4
7C
ENDCHAR
STARTCHAR H
ENCODING 72
SWIDTH 735 0
DWIDTH 9 0
BBX 7 9 1 0
BITMAP
42
42
42
42
FE
84
84
84
84
ENDCHAR
STARTCHAR I
ENCODING 73
SWIDTH 289 0
DWIDTH 4 0
BBX 2 9 1 0
BITMAP
40
40
40
40
C0
80
80
80
80
ENDCHAR
STARTCHAR J
ENCODING 74
SWIDTH 408 0
DWIDTH 5 0
BBX 4 11 0 -2
BITMAP
10
10
10
10
30
20
20
20
20
60
C0
ENDCHAR
STARTCHAR K
ENCODING 75
SWIDTH 635 0
DWIDTH 8 0
BBX 7 9 1 0
BITMAP
42
44
48
50
E0
90
88
8C
86
ENDCHAR
STARTCHAR L
ENCODING 76
SWIDTH 545 0
DWIDTH 7 0
BBX 5 9 1 0
BITMAP
40
40
40
40
C0
80
80
80
F8
ENDCHAR
STARTCHAR M
ENCODING 77
SWIDTH 828 0
DWIDTH 11 0
BBX 9 9 1 0
BITMAP
7380
5280
5280
5480
5480
8900
8900
8100
8100
ENDCHAR
STARTCHAR N
ENCODING 78
SWIDTH 741 0
DWIDTH 9 0
BBX 7 9 1 0
BITMAP
62
62
52
52
54
94
8C
8C
84
ENDCHAR
STARTCHAR O
ENCODING 79
SWIDTH 777 0
DWIDTH 10 0
BBX 8 9 1 0
BITMAP
0E
33
41
41
81
82
82
CC
70
ENDCHAR
STARTCHAR P
ENCODING 80
SWIDTH 575 0
DWIDTH 7 0
BBX 6 9 1 0
BITMAP
78
44
44
44
88
F0
80
80
80
ENDCHAR
STARTCHAR Q
ENCODING 81
SWIDTH 777 0
DWIDTH 10 0
BBX 8 11 1 -2
BITMAP
0E
33
41
41
81
82
82
CC
70
0C
03
ENDCHAR
STARTCHAR R
ENCODING 82
SWIDTH 632 0
DWIDTH 8 0
BBX 6 9 1 0
BITMAP
78
44
44
48
F0
90
90
88
8C
ENDCHAR
STARTCHAR S
ENCODING 83
SWIDTH 553 0
DWIDTH 7 0
BBX 6 9 1 0
BITMAP
38
44
40
60
30
18
08
88
70
ENDCHAR
STARTCHAR T
ENCODING 84
SWIDTH 623 0
DWIDTH 8 0
BBX 7 9 1 0
BITMAP
FE
10
10
10
30
20
20
20
20
ENDCHAR
STARTCHAR U
ENCODING 85
SWIDTH 693 0
DWIDTH 9 0
BBX 7 9 1 0
BITMAP
42
42
42
42
C4
84
84
C8
70
ENDCHAR
STARTCHAR V
ENCODING 86
SWIDTH 687 0
DWIDTH 8 0
BBX 6 9 2 0
BITMAP
84
84
84
88
88
90
A0
C0
80
ENDCHAR
STARTCHAR W
ENCODING 87
SWIDTH 886 0
DWIDTH 11 0
BBX 9 9 2 0
BITMAP
8080
8880
8880
9900
9900
AA00
AA00
CC00
8800
ENDCHAR
STARTCHAR X
ENCODING 88
SWIDTH 620 0
DWIDTH 8 0
BBX 8 9 0 0
BITMAP
61
21
12
14
18
28
48
84
86
ENDCHAR
STARTCHAR Y
ENCODING 89
SWIDTH 608 0
DWIDTH 7 0
BBX 6 9 1 0
BITMAP
84
84
88
88
90
60
40
40
40
ENDCHAR
STARTCHAR Z
ENCODING 90
SWIDTH 578 0
DWIDTH 7 0
BBX 8 9 0 0
BITMAP
3F
02
04
08
10
20
40
80
FC
ENDCHAR
STARTCHAR bracketleft
ENCODING 91
SWIDTH 325 0
DWIDTH 4 0
BBX 5 11 0 -1
BITMAP
38
20
20
20
40
40
40
40
80
80
E0
ENDCHAR
STARTCHAR backslash
ENCODING 92
SWIDTH 482 0
DWIDTH 6 0
BBX 4 11 1 -1
BITMAP
80
80
80
40
40
20
20
20
10
10
10
ENDCHAR
STARTCHAR bracketright
ENCODING 93
SWIDTH 325 0
DWIDTH 4 0
BBX 5 11 -1 -1
BITMAP
38
08
08
10
10
10
10
20
20
20
E0
ENDCHAR
STARTCHAR asciicircum
ENCODING 94
SWIDTH 633 0
DWIDTH 8 0
BBX 5 6 2 2
BITMAP
08
18
28
48
88
88
ENDCHAR
STARTCHAR underscore
ENCODING 95
SWIDTH 500 0
DWIDTH 8 0
BBX 6 1 1 -1
BITMAP
FC
ENDCHAR
STARTCHAR grave
ENCODING 96
SWIDTH 572 0
DWIDTH 7 0
BBX 2 2 3 8
BITMAP
80
40
ENDCHAR
STARTCHAR a
ENCODING 97
SWIDTH 608 0
DWIDTH 8 0
BBX 6 7 1 0
BITMAP
3C
44
44
84
88
98
68
ENDCHAR
STARTCHAR b
ENCODING 98
SWIDTH 608 0
DWIDTH 8 0
BBX 6 10 1 0
BITMAP
20
20
20
58
64
44
84
88
88
F0
ENDCHAR
STARTCHAR c
ENCODING 99
SWIDTH 503 0
DWIDTH 6 0
BBX 5 7 1 0
BITMAP
30
48
80
80
80
80
70
ENDCHAR
STARTCHAR d
ENCODING 100
SWIDTH 608 0
DWIDTH 8 0
BBX 7 10 1 0
BITMAP
02
02
02
3C
44
44
84
88
98
68
ENDCHAR
STARTCHAR e
ENCODING 101
SWIDTH 529 0
DWIDTH 6 0
BBX 5 7 1 0
BITMAP
30
48
88
F0
80
80
70
ENDCHAR
STARTCHAR f
ENCODING 102
SWIDTH 383 0
DWIDTH 5 0
BBX 6 12 0 -2
BITMAP
0C
10
10
7C
20
20
20
40
40
40
80
80
ENDCHAR
STARTCHAR g
ENCODING 103
SWIDTH 608 0
DWIDTH 8 0
BBX 6 9 1 -2
BITMAP
3C
44
44
88
98
68
08
10
E0
ENDCHAR
STARTCHAR h
ENCODING 104
SWIDTH 620 0
DWIDTH 8 0
BBX 6 10 1 0
BITMAP
20
20
20
5C
64
44
44
88
88
88
ENDCHAR
STARTCHAR i
ENCODING 105
SWIDTH 289 0
DWIDTH 4 0
BBX 3 10 1 0
BITMAP
20
20
00
40
40
40
40
80
80
80
ENDCHAR
STARTCHAR j
ENCODING 106
SWIDTH 325 0
DWIDTH 4 0
BBX 5 12 -1 -2
BITMAP
08
08
00
10
10
10
10
10
20
20
20
C0
ENDCHAR
STARTCHAR k
ENCODING 107
SWIDTH 572 0
DWIDTH 7 0
BBX 6 10 1 0
BITMAP
20
20
20
44
48
50
60
90
88
84
ENDCHAR
STARTCHAR l
ENCODING 108
SWIDTH 289 0
DWIDTH 4 0
BBX 3 10 1 0
BITMAP
20
20
20
40
40
40
40
80
80
80
ENDCHAR
STARTCHAR m
ENCODING 109
SWIDTH 934 0
DWIDTH 12 0
BBX 10 7 1 0
BITMAP
5DC0
6640
4440
4440
8880
8880
8880
ENDCHAR
STARTCHAR n
ENCODING 110
SWIDTH 620 0
DWIDTH 8 0
BBX 6 7 1 0
BITMAP
5C
64
44
44
88
88
88
ENDCHAR
STARTCHAR o
ENCODING 111
SWIDTH 566 0
DWIDTH 7 0
BBX 5 7 1 0
BITMAP
30
48
88
88
88
90
60
ENDCHAR
STARTCHAR p
ENCODING 112
SWIDTH 608 0
DWIDTH 8 0
BBX 7 9 0 -2
BITMAP
2C
32
22
42
44
44
78
80
80
ENDCHAR
STARTCHAR q
ENCODING 113
SWIDTH 608 0
DWIDTH 8 0
BBX 6 9 1 -2
BITMAP
3C
44
44
84
88
98
68
10
10
ENDCHAR
STARTCHAR r
ENCODING 114
SWIDTH 478 0
DWIDTH 6 0
BBX 5 7 1 0
BITMAP
58
60
40
C0
80
80
80
ENDCHAR
STARTCHAR s
ENCODING 115
SWIDTH 489 0
DWIDTH 6 0
BBX 6 7 0 0
BITMAP
38
44
60
30
18
88
70
ENDCHAR
STARTCHAR t
ENCODING 116
SWIDTH 383 0
DWIDTH 5 0
BBX 4 9 1 0
BITMAP
20
20
F0
40
40
80
80
80
E0
ENDCHAR
STARTCHAR u
ENCODING 117
SWIDTH 620 0
DWIDTH 8 0
BBX 6 7 1 0
BITMAP
44
44
44
88
88
98
68
ENDCHAR
STARTCHAR v
ENCODING 118
SWIDTH 545 0
DWIDTH 6 0
BBX 5 7 1 0
BITMAP
88
88
88
90
A0
C0
80
ENDCHAR
STARTCHAR w
ENCODING 119
SWIDTH 795 0
DWIDTH 9 0
BBX 8 7 1 0
BITMAP
81
91
91
92
AA
CC
88
ENDCHAR
STARTCHAR x
ENCODING 120
SWIDTH 541 0
DWIDTH 7 0
BBX 6 7 1 0
BITMAP
44
44
28
30
50
88
88
ENDCHAR
STARTCHAR y
ENCODING 121
SWIDTH 548 0
DWIDTH 6 0
BBX 7 9 -1 -2
BITMAP
22
22
22
24
28
30
20
40
80
ENDCHAR
STARTCHAR z
ENCODING 122
SWIDTH 536 0
DWIDTH 7 0
BBX 6 7 1 0
BITMAP
7C
08
10
30
20
40
F8
ENDCHAR
STARTCHAR braceleft
ENCODING 123
SWIDTH 325 0
DWIDTH 4 0
BBX 4 11 0 -1
BITMAP
10
20
40
40
20
C0
20
40
80
80
40
ENDCHAR
STARTCHAR bar
ENCODING 124
SWIDTH 233 0
DWIDTH 3 0
BBX 3 11 0 -1
BITMAP
20
20
20
20
40
40
40
80
80
80
80
ENDCHAR
STARTCHAR braceright
ENCODING 125
SWIDTH 325 0
DWIDTH 4 0
BBX 4 11 0 -1
BITMAP
20
10
10
20
40
30
40
20
20
40
80
ENDCHAR
STARTCHAR asciitilde
ENCODING 126
SWIDTH 633 0
DWIDTH 8 0
BBX 7 2 1 3
BITMAP
72
9C
ENDCHAR
STARTCHAR afii10051
ENCODING 128
SWIDTH 916 0
DWIDTH 11 0
BBX 8 9 1 0
BITMAP
FE
10
10
1E
31
21
21
22
24
ENDCHAR
STARTCHAR afii10052
ENCODING 129
SWIDTH 500 0
DWIDTH 6 0
BBX 6 11 1 0
BITMAP
08
10
00
7C
40
40
C0
80
80
80
80
ENDCHAR
STARTCHAR quotesinglbase
ENCODING 130
SWIDTH 217 0
DWIDTH 3 0
BBX 2 3 0 -1
BITMAP
40
40
80
ENDCHAR
STARTCHAR afii10100
ENCODING 131
SWIDTH 583 0
DWIDTH 7 0
BBX 5 10 1 0
BITMAP
08
10
00
30
48
08
70
80
88
70
ENDCHAR
STARTCHAR quotedblbase
ENCODING 132
SWIDTH 361 0
DWIDTH 4 0
BBX 4 3 0 -1
BITMAP
50
50
A0
ENDCHAR
STARTCHAR ellipsis
ENCODING 133
SWIDTH 1000 0
DWIDTH 8 0
BBX 5 2 2 0
BITMAP
88
88
ENDCHAR
STARTCHAR dagger
ENCODING 134
SWIDTH 633 0
DWIDTH 8 0
BBX 6 10 1 -1
BITMAP
10
10
10
FC
20
20
20
40
40
40
ENDCHAR
STARTCHAR daggerdbl
ENCODING 135
SWIDTH 633 0
DWIDTH 8 0
BBX 7 10 1 -1
BITMAP
08
08
08
7E
10
10
FC
20
20
20
ENDCHAR
STARTCHAR Euro
ENCODING 136
SWIDTH 750 0
DWIDTH 9 0
BBX 8 9 1 0
BITMAP
06
19
20
7C
40
F8
40
62
3C
ENDCHAR
STARTCHAR perthousand
ENCODING 137
SWIDTH 1027 0
DWIDTH 13 0
BBX 13 9 0 0
BITMAP
6100
9200
9400
6400
0800
1330
14C8
24C8
4330
ENDCHAR
STARTCHAR afii10058
ENCODING 138
SWIDTH 1000 0
DWIDTH 12 0
BBX 11 9 0 0
BITMAP
1F00
1100
1100
11C0
2120
2220
2220
4220
83C0
ENDCHAR
STARTCHAR guilsinglleft
ENCODING 139
SWIDTH 328 0
DWIDTH 4 0
BBX 4 5 0 1
BITMAP
10
60
80
40
20
ENDCHAR
STARTCHAR afii10059
ENCODING 140
SWIDTH 1000 0
DWIDTH 12 0
BBX 10 9 1 0
BITMAP
4200
4200
4200
7F80
C640
8440
8440
8440
8780
ENDCHAR
STARTCHAR afii10061
ENCODING 141
SWIDTH 666 0
DWIDTH 8 0
BBX 7 11 1 0
BITMAP
04
08
00
42
44
48
F0
90
88
8C
86
ENDCHAR
STARTCHAR afii10060
ENCODING 142
SWIDTH 916 0
DWIDTH 11 0
BBX 8 9 1 0
BITMAP
FE
10
10
1E
31
21
21
21
21
ENDCHAR
STARTCHAR afii10145
ENCODING 143
SWIDTH 750 0
DWIDTH 9 0
BBX 7 10 1 -1
BITMAP
42
42
42
42
84
84
84
84
FC
20
ENDCHAR
STARTCHAR afii10099
ENCODING 144
SWIDTH 666 0
DWIDTH 8 0
BBX 6 12 1 -2
BITMAP
20
78
20
5C
64
44
44
88
88
90
10
20
ENDCHAR
STARTCHAR quoteleft
ENCODING 145
SWIDTH 217 0
DWIDTH 3 0
BBX 2 3 1 7
BITMAP
40
80
80
ENDCHAR
STARTCHAR quoteright
ENCODING 146
SWIDTH 217 0
DWIDTH 3 0
BBX 2 3 1 7
BITMAP
40
40
80
ENDCHAR
STARTCHAR quotedblleft
ENCODING 147
SWIDTH 361 0
DWIDTH 5 0
BBX 4 3 1 7
BITMAP
50
A0
A0
ENDCHAR
STARTCHAR quotedblright
ENCODING 148
SWIDTH 361 0
DWIDTH 5 0
BBX 4 3 1 7
BITMAP
50
50
A0
ENDCHAR
STARTCHAR bullet
ENCODING 149
SWIDTH 633 0
DWIDTH 8 0
BBX 3 3 3 3
BITMAP
E0
E0
E0
ENDCHAR
STARTCHAR endash
ENCODING 150
SWIDTH 500 0
DWIDTH 6 0
BBX 5 1 1 4
BITMAP
F8
ENDCHAR
STARTCHAR emdash
ENCODING 151
SWIDTH 1000 0
DWIDTH 13 0
BBX 12 1 1 4
BITMAP
FFF0
ENDCHAR
STARTCHAR trademark
ENCODING 153
SWIDTH 801 0
DWIDTH 10 0
BBX 8 4 1 5
BITMAP
FB
55
55
51
ENDCHAR
STARTCHAR afii10106
ENCODING 154
SWIDTH 916 0
DWIDTH 11 0
BBX 10 7 0 0
BITMAP
1E00
1200
1380
2640
2440
4480
8300
ENDCHAR
STARTCHAR guilsinglright
ENCODING 155
SWIDTH 328 0
DWIDTH 4 0
BBX 4 5 0 1
BITMAP
40
20
10
60
80
ENDCHAR
STARTCHAR afii10107
ENCODING 156
SWIDTH 916 0
DWIDTH 11 0
BBX 9 7 1 0
BITMAP
4400
4400
4700
7C80
8880
8900
8600
ENDCHAR
STARTCHAR afii10109
ENCODING 157
SWIDTH 583 0
DWIDTH 7 0
BBX 6 10 1 0
BITMAP
08
10
00
44
48
50
60
90
88
84
ENDCHAR
STARTCHAR afii10108
ENCODING 158
SWIDTH 666 0
DWIDTH 8 0
BBX 6 10 1 0
BITMAP
20
78
20
5C
64
44
44
88
88
88
ENDCHAR
STARTCHAR afii10193
ENCODING 159
SWIDTH 666 0
DWIDTH 8 0
BBX 6 8 1 -1
BITMAP
44
44
44
88
88
98
68
20
ENDCHAR
STARTCHAR space
ENCODING 160
SWIDTH 316 0
DWIDTH 4 0
BBX 0 0 0 0
BITMAP
ENDCHAR
STARTCHAR afii10062
ENCODING 161
SWIDTH 666 0
DWIDTH 8 0
BBX 7 11 1 0
BITMAP
1C
00
42
42
42
24
24
28
10
20
C0
ENDCHAR
STARTCHAR afii10110
ENCODING 162
SWIDTH 500 0
DWIDTH 6 0
BBX 7 11 -1 -2
BITMAP
0C
00
22
22
22
24
28
30
20
40
80
ENDCHAR
STARTCHAR afii10057
ENCODING 163
SWIDTH 408 0
DWIDTH 5 0
BBX 4 11 0 -2
BITMAP
10
10
10
10
30
20
20
20
20
60
C0
ENDCHAR
STARTCHAR currency
ENCODING 164
SWIDTH 633 0
DWIDTH 8 0
BBX 7 7 1 1
BITMAP
82
7C
44
44
44
7C
82
ENDCHAR
STARTCHAR afii10050
ENCODING 165
SWIDTH 500 0
DWIDTH 6 0
BBX 6 10 1 0
BITMAP
04
7C
40
40
40
C0
80
80
80
80
ENDCHAR
STARTCHAR brokenbar
ENCODING 166
SWIDTH 233 0
DWIDTH 3 0
BBX 3 11 0 -1
BITMAP
20
20
20
20
00
00
00
80
80
80
80
ENDCHAR
STARTCHAR section
ENCODING 167
SWIDTH 633 0
DWIDTH 8 0
BBX 6 10 1 -1
BITMAP
18
24
20
50
48
48
28
10
90
60
ENDCHAR
STARTCHAR afii10023
ENCODING 168
SWIDTH 547 0
DWIDTH 7 0
BBX 6 10 1 0
BITMAP
24
00
7C
40
40
F0
80
80
80
F8
ENDCHAR
STARTCHAR copyright
ENCODING 169
SWIDTH 858 0
DWIDTH 11 0
BBX 9 9 1 0
BITMAP
1C00
6300
4D00
9080
9080
9080
4D00
6300
1C00
ENDCHAR
STARTCHAR afii10053
ENCODING 170
SWIDTH 666 0
DWIDTH 8 0
BBX 7 9 1 0
BITMAP
0C
32
40
40
F8
80
80
C4
78
ENDCHAR
STARTCHAR guillemotleft
ENCODING 171
SWIDTH 527 0
DWIDTH 7 0
BBX 7 5 0 1
BITMAP
12
6C
90
48
24
ENDCHAR
STARTCHAR logicalnot
ENCODING 172
SWIDTH 633 0
DWIDTH 8 0
BBX 6 3 1 2
BITMAP
FC
04
04
ENDCHAR
STARTCHAR hyphen
ENCODING 173
SWIDTH 313 0
DWIDTH 4 0
BBX 3 1 1 4
BITMAP
E0
ENDCHAR
STARTCHAR registered
ENCODING 174
SWIDTH 633 0
DWIDTH 8 0
BBX 7 7 1 2
BITMAP
38
44
BA
B2
AA
44
38
ENDCHAR
STARTCHAR afii10056
ENCODING 175
SWIDTH 289 0
DWIDTH 4 0
BBX 3 10 1 0
BITMAP
A0
00
40
40
40
C0
80
80
80
80
ENDCHAR
STARTCHAR degree
ENCODING 176
SWIDTH 269 0
DWIDTH 4 0
BBX 4 3 0 6
BITMAP
60
90
60
ENDCHAR
STARTCHAR plusminus
ENCODING 177
SWIDTH 633 0
DWIDTH 8 0
BBX 7 7 1 1
BITMAP
08
08
7E
10
10
00
FC
ENDCHAR
STARTCHAR afii10055
ENCODING 178
SWIDTH 289 0
DWIDTH 4 0
BBX 2 9 1 0
BITMAP
40
40
40
40
C0
80
80
80
80
ENDCHAR
STARTCHAR afii10103
ENCODING 179
SWIDTH 289 0
DWIDTH 4 0
BBX 3 10 1 0
BITMAP
20
20
00
40
40
40
40
80
80
80
ENDCHAR
STARTCHAR afii10098
ENCODING 180
SWIDTH 500 0
DWIDTH 6 0
BBX 5 8 1 0
BITMAP
08
78
40
40
C0
80
80
80
ENDCHAR
STARTCHAR mu
ENCODING 181
SWIDTH 627 0
DWIDTH 8 0
BBX 7 9 0 -2
BITMAP
22
22
22
44
44
4C
B4
80
80
ENDCHAR
STARTCHAR paragraph
ENCODING 182
SWIDTH 633 0
DWIDTH 8 0
BBX 6 10 1 -1
BITMAP
7C
F4
F4
68
28
28
28
50
50
50
ENDCHAR
STARTCHAR periodcentered
ENCODING 183
SWIDTH 316 0
DWIDTH 8 0
BBX 2 2 3 3
BITMAP
C0
C0
ENDCHAR
STARTCHAR afii10071
ENCODING 184
SWIDTH 529 0
DWIDTH 6 0
BBX 5 9 1 0
BITMAP
48
00
30
48
88
F0
80
80
70
ENDCHAR
STARTCHAR afii61352
ENCODING 185
SWIDTH 1083 0
DWIDTH 13 0
BBX 11 9 1 0
BITMAP
6200
6200
5240
52A0
54A0
9440
8C00
8DC0
8400
ENDCHAR
STARTCHAR afii10101
ENCODING 186
SWIDTH 500 0
DWIDTH 6 0
BBX 5 7 1 0
BITMAP
30
48
80
E0
80
80
70
ENDCHAR
STARTCHAR guillemotright
ENCODING 187
SWIDTH 527 0
DWIDTH 7 0
BBX 7 5 0 1
BITMAP
48
24
12
6C
90
ENDCHAR
STARTCHAR afii10105
ENCODING 188
SWIDTH 325 0
DWIDTH 4 0
BBX 5 12 -1 -2
BITMAP
08
08
00
10
10
10
10
10
20
20
20
C0
ENDCHAR
STARTCHAR afii10054
ENCODING 189
SWIDTH 553 0
DWIDTH 7 0
BBX 6 9 1 0
BITMAP
38
44
40
60
30
18
08
88
70
ENDCHAR
STARTCHAR afii10102
ENCODING 190
SWIDTH 489 0
DWIDTH 6 0
BBX 6 7 0 0
BITMAP
38
44
60
30
18
88
70
ENDCHAR
STARTCHAR afii10104
ENCODING 191
SWIDTH 289 0
DWIDTH 4 0
BBX 3 9 1 0
BITMAP
A0
00
40
40
40
40
80
80
80
ENDCHAR
STARTCHAR afii10017
ENCODING 192
SWIDTH 666 0
DWIDTH 8 0
BBX 6 9 1 0
BITMAP
04
0C
14
24
44
7C
84
84
84
ENDCHAR
STARTCHAR afii10018
ENCODING 193
SWIDTH 583 0
DWIDTH 7 0
BBX 6 9 1 0
BITMAP
7C
40
40
70
88
88
88
88
F0
ENDCHAR
STARTCHAR afii10019
ENCODING 194
SWIDTH 583 0
DWIDTH 7 0
BBX 6 9 1 0
BITMAP
78
44
44
48
F8
84
84
88
F0
ENDCHAR
STARTCHAR afii10020
ENCODING 195
SWIDTH 500 0
DWIDTH 6 0
BBX 6 9 1 0
BITMAP
7C
40
40
40
C0
80
80
80
80
ENDCHAR
STARTCHAR afii10021
ENCODING 196
SWIDTH 750 0
DWIDTH 9 0
BBX 8 10 0 -1
BITMAP
1F
11
11
11
22
22
42
42
FF
82
ENDCHAR
STARTCHAR afii10022
ENCODING 197
SWIDTH 583 0
DWIDTH 7 0
BBX 6 9 1 0
BITMAP
7C
40
40
40
F0
80
80
80
F8
ENDCHAR
STARTCHAR afii10024
ENCODING 198
SWIDTH 916 0
DWIDTH 11 0
BBX 11 9 0 0
BITMAP
2220
1240
0A80
0700
0E00
1500
2480
64C0
C460
ENDCHAR
STARTCHAR afii10025
ENCODING 199
SWIDTH 583 0
DWIDTH 7 0
BBX 6 9 0 0
BITMAP
38
44
04
08
38
04
04
88
70
ENDCHAR
STARTCHAR afii10026
ENCODING 200
SWIDTH 750 0
DWIDTH 9 0
BBX 7 9 1 0
BITMAP
42
46
4A
4A
54
94
A4
C4
84
ENDCHAR
STARTCHAR afii10027
ENCODING 201
SWIDTH 750 0
DWIDTH 9 0
BBX 7 11 1 0
BITMAP
1C
00
42
46
4A
4A
54
94
A4
C4
84
ENDCHAR
STARTCHAR afii10028
ENCODING 202
SWIDTH 666 0
DWIDTH 8 0
BBX 7 9 1 0
BITMAP
42
44
48
50
E0
90
88
8C
86
ENDCHAR
STARTCHAR afii10029
ENCODING 203
SWIDTH 750 0
DWIDTH 9 0
BBX 8 9 0 0
BITMAP
1F
11
11
11
21
22
22
42
82
ENDCHAR
STARTCHAR afii10030
ENCODING 204
SWIDTH 916 0
DWIDTH 11 0
BBX 9 9 1 0
BITMAP
7380
5280
5280
5480
5480
8900
8900
8100
8100
ENDCHAR
STARTCHAR afii10031
ENCODING 205
SWIDTH 750 0
DWIDTH 9 0
BBX 7 9 1 0
BITMAP
42
42
42
42
FE
84
84
84
84
ENDCHAR
STARTCHAR afii10032
ENCODING 206
SWIDTH 833 0
DWIDTH 10 0
BBX 8 9 1 0
BITMAP
0E
33
41
41
81
82
82
CC
70
ENDCHAR
STARTCHAR afii10033
ENCODING 207
SWIDTH 750 0
DWIDTH 9 0
BBX 7 9 1 0
BITMAP
7E
42
42
42
42
84
84
84
84
ENDCHAR
STARTCHAR afii10034
ENCODING 208
SWIDTH 583 0
DWIDTH 7 0
BBX 6 9 1 0
BITMAP
78
44
44
44
88
F0
80
80
80
ENDCHAR
STARTCHAR afii10035
ENCODING 209
SWIDTH 666 0
DWIDTH 8 0
BBX 7 9 1 0
BITMAP
0C
32
40
40
80
80
80
C4
78
ENDCHAR
STARTCHAR afii10036
ENCODING 210
SWIDTH 666 0
DWIDTH 8 0
BBX 7 9 1 0
BITMAP
FE
10
10
10
30
20
20
20
20
ENDCHAR
STARTCHAR afii10037
ENCODING 211
SWIDTH 666 0
DWIDTH 8 0
BBX 7 9 1 0
BITMAP
42
42
42
24
24
28
10
20
C0
ENDCHAR
STARTCHAR afii10038
ENCODING 212
SWIDTH 833 0
DWIDTH 10 0
BBX 8 9 1 0
BITMAP
08
3E
49
89
91
91
92
7C
10
ENDCHAR
STARTCHAR afii10039
ENCODING 213
SWIDTH 666 0
DWIDTH 8 0
BBX 8 9 0 0
BITMAP
61
21
12
14
18
28
48
84
86
ENDCHAR
STARTCHAR afii10040
ENCODING 214
SWIDTH 750 0
DWIDTH 9 0
BBX 7 10 1 -1
BITMAP
42
42
42
42
84
84
84
84
FE
04
ENDCHAR
STARTCHAR afii10041
ENCODING 215
SWIDTH 750 0
DWIDTH 9 0
BBX 6 9 2 0
BITMAP
84
84
84
84
8C
78
08
08
08
ENDCHAR
STARTCHAR afii10042
ENCODING 216
SWIDTH 1000 0
DWIDTH 12 0
BBX 10 9 1 0
BITMAP
4440
4440
4440
4440
8880
8880
8880
8880
FF80
ENDCHAR
STARTCHAR afii10043
ENCODING 217
SWIDTH 1000 0
DWIDTH 12 0
BBX 10 10 1 -1
BITMAP
4440
4440
4440
4440
8880
8880
8880
8880
FFC0
0080
ENDCHAR
STARTCHAR afii10044
ENCODING 218
SWIDTH 666 0
DWIDTH 8 0
BBX 6 9 1 0
BITMAP
E0
20
20
38
44
44
44
44
78
ENDCHAR
STARTCHAR afii10045
ENCODING 219
SWIDTH 916 0
DWIDTH 11 0
BBX 9 9 1 0
BITMAP
4080
4080
4080
7080
8900
8900
8900
8900
F100
ENDCHAR
STARTCHAR afii10046
ENCODING 220
SWIDTH 583 0
DWIDTH 7 0
BBX 5 9 1 0
BITMAP
40
40
40
70
88
88
88
88
F0
ENDCHAR
STARTCHAR afii10047
ENCODING 221
SWIDTH 750 0
DWIDTH 9 0
BBX 8 9 0 0
BITMAP
0E
13
01
01
0F
02
02
84
78
ENDCHAR
STARTCHAR afii10048
ENCODING 222
SWIDTH 1083 0
DWIDTH 13 0
BBX 11 9 1 0
BITMAP
41C0
4660
4820
4820
7020
9040
9040
9980
8E00
ENDCHAR
STARTCHAR afii10049
ENCODING 223
SWIDTH 666 0
DWIDTH 8 0
BBX 7 9 0 0
BITMAP
1E
22
22
22
1E
14
24
24
C4
ENDCHAR
STARTCHAR afii10065
ENCODING 224
SWIDTH 666 0
DWIDTH 8 0
BBX 6 7 1 0
BITMAP
3C
44
44
84
88
98
68
ENDCHAR
STARTCHAR afii10066
ENCODING 225
SWIDTH 583 0
DWIDTH 7 0
BBX 6 10 1 0
BITMAP
1C
20
40
70
C8
88
88
88
90
60
ENDCHAR
STARTCHAR afii10067
ENCODING 226
SWIDTH 583 0
DWIDTH 7 0
BBX 6 10 1 0
BITMAP
18
24
24
48
50
88
88
88
90
60
ENDCHAR
STARTCHAR afii10068
ENCODING 227
SWIDTH 583 0
DWIDTH 7 0
BBX 5 7 1 0
BITMAP
30
48
08
70
80
88
70
ENDCHAR
STARTCHAR afii10069
ENCODING 228
SWIDTH 583 0
DWIDTH 7 0
BBX 5 10 1 0
BITMAP
20
10
08
38
48
88
88
88
90
60
ENDCHAR
STARTCHAR afii10070
ENCODING 229
SWIDTH 500 0
DWIDTH 6 0
BBX 5 7 1 0
BITMAP
30
48
88
F0
80
80
70
ENDCHAR
STARTCHAR afii10072
ENCODING 230
SWIDTH 833 0
DWIDTH 10 0
BBX 10 7 0 0
BITMAP
4440
2480
1500
1E00
2900
4880
8840
ENDCHAR
STARTCHAR afii10073
ENCODING 231
SWIDTH 583 0
DWIDTH 7 0
BBX 6 7 0 0
BITMAP
38
44
04
18
08
88
70
ENDCHAR
STARTCHAR afii10074
ENCODING 232
SWIDTH 666 0
DWIDTH 8 0
BBX 6 7 1 0
BITMAP
44
44
44
88
88
98
68
ENDCHAR
STARTCHAR afii10075
ENCODING 233
SWIDTH 666 0
DWIDTH 8 0
BBX 6 9 1 0
BITMAP
18
00
44
44
44
88
88
98
68
ENDCHAR
STARTCHAR afii10076
ENCODING 234
SWIDTH 583 0
DWIDTH 7 0
BBX 6 7 1 0
BITMAP
44
48
50
60
90
88
84
ENDCHAR
STARTCHAR afii10077
ENCODING 235
SWIDTH 666 0
DWIDTH 8 0
BBX 7 7 0 0
BITMAP
1E
12
12
22
24
44
84
ENDCHAR
STARTCHAR afii10078
ENCODING 236
SWIDTH 833 0
DWIDTH 10 0
BBX 8 7 1 0
BITMAP
63
63
55
59
92
92
82
ENDCHAR
STARTCHAR afii10079
ENCODING 237
SWIDTH 666 0
DWIDTH 8 0
BBX 6 7 1 0
BITMAP
44
44
44
7C
88
88
88
ENDCHAR
STARTCHAR afii10080
ENCODING 238
SWIDTH 583 0
DWIDTH 7 0
BBX 5 7 1 0
BITMAP
30
48
88
88
88
90
60
ENDCHAR
STARTCHAR afii10081
ENCODING 239
SWIDTH 666 0
DWIDTH 8 0
BBX 6 7 1 0
BITMAP
5C
64
44
44
88
88
88
ENDCHAR
STARTCHAR afii10082
ENCODING 240
SWIDTH 666 0
DWIDTH 8 0
BBX 7 9 0 -2
BITMAP
2C
32
22
42
44
44
78
80
80
ENDCHAR
STARTCHAR afii10083
ENCODING 241
SWIDTH 500 0
DWIDTH 6 0
BBX 5 7 1 0
BITMAP
30
48
80
80
80
80
70
ENDCHAR
STARTCHAR afii10084
ENCODING 242
SWIDTH 1000 0
DWIDTH 12 0
BBX 10 7 1 0
BITMAP
5DC0
6640
4440
4440
8880
8880
8880
ENDCHAR
STARTCHAR afii10085
ENCODING 243
SWIDTH 500 0
DWIDTH 6 0
BBX 7 9 -1 -2
BITMAP
22
22
22
24
28
30
20
40
80
ENDCHAR
STARTCHAR afii10086
ENCODING 244
SWIDTH 1000 0
DWIDTH 12 0
BBX 10 12 1 -2
BITMAP
0200
0200
0200
3580
4E40
4440
8840
8880
9C80
6B00
1000
1000
ENDCHAR
STARTCHAR afii10087
ENCODING 245
SWIDTH 583 0
DWIDTH 7 0
BBX 6 7 1 0
BITMAP
44
44
28
30
50
88
88
ENDCHAR
STARTCHAR afii10088
ENCODING 246
SWIDTH 666 0
DWIDTH 8 0
BBX 6 8 1 -1
BITMAP
44
44
44
88
88
98
6C
04
ENDCHAR
STARTCHAR afii10089
ENCODING 247
SWIDTH 666 0
DWIDTH 8 0
BBX 5 7 2 0
BITMAP
88
88
88
90
70
10
10
ENDCHAR
STARTCHAR afii10090
ENCODING 248
SWIDTH 1000 0
DWIDTH 12 0
BBX 10 7 1 0
BITMAP
4440
4440
4440
8880
8880
9980
EE80
ENDCHAR
STARTCHAR afii10091
ENCODING 249
SWIDTH 1000 0
DWIDTH 12 0
BBX 10 8 1 -1
BITMAP
4440
4440
4440
8880
8880
9980
EEC0
0040
ENDCHAR
STARTCHAR afii10092
ENCODING 250
SWIDTH 583 0
DWIDTH 7 0
BBX 5 7 1 0
BITMAP
C0
40
70
C8
88
90
60
ENDCHAR
STARTCHAR afii10093
ENCODING 251
SWIDTH 916 0
DWIDTH 11 0
BBX 9 7 1 0
BITMAP
4080
4080
7080
C880
8900
9100
6100
ENDCHAR
STARTCHAR afii10094
ENCODING 252
SWIDTH 583 0
DWIDTH 7 0
BBX 5 7 1 0
BITMAP
40
40
70
C8
88
90
60
ENDCHAR
STARTCHAR afii10095
ENCODING 253
SWIDTH 500 0
DWIDTH 6 0
BBX 5 7 0 0
BITMAP
70
08
08
38
08
90
60
ENDCHAR
STARTCHAR afii10096
ENCODING 254
SWIDTH 833 0
DWIDTH 10 0
BBX 8 7 1 0
BITMAP
46
49
51
F1
91
92
8C
ENDCHAR
STARTCHAR afii10097
ENCODING 255
SWIDTH 666 0
DWIDTH 8 0
BBX 7 7 0 0
BITMAP
1E
22
22
1E
14
24
C4
ENDCHAR
STARTCHAR fl
ENCODING -1
SWIDTH 639 0
DWIDTH 8 0
BBX 8 12 0 -2
BITMAP
0F
11
11
7A
22
22
22
44
44
44
80
80
ENDCHAR
STARTCHAR Zcaron
ENCODING -1
SWIDTH 578 0
DWIDTH 7 0
BBX 8 11 0 0
BITMAP
14
08
00
3F
02
04
08
10
20
40
FC
ENDCHAR
STARTCHAR oe
ENCODING -1
SWIDTH 899 0
DWIDTH 11 0
BBX 9 7 1 0
BITMAP
3300
4C80
8880
8F00
8800
9800
6700
ENDCHAR
STARTCHAR Ydieresis
ENCODING -1
SWIDTH 608 0
DWIDTH 7 0
BBX 6 10 1 0
BITMAP
48
00
84
88
88
90
60
40
40
40
ENDCHAR
STARTCHAR dotlessi
ENCODING -1
SWIDTH 289 0
DWIDTH 4 0
BBX 2 7 1 0
BITMAP
40
40
40
40
80
80
80
ENDCHAR
STARTCHAR lslash
ENCODING -1
SWIDTH 289 0
DWIDTH 5 0
BBX 5 10 0 0
BITMAP
10
10
10
20
38
E0
20
40
40
40
ENDCHAR
STARTCHAR Lslash
ENCODING -1
SWIDTH 545 0
DWIDTH 7 0
BBX 7 9 0 0
BITMAP
10
10
10
1C
F0
20
20
20
3E
ENDCHAR
STARTCHAR fi
ENCODING -1
SWIDTH 639 0
DWIDTH 8 0
BBX 8 12 0 -2
BITMAP
0D
11
10
7E
22
22
26
44
44
44
80
80
ENDCHAR
STARTCHAR OE
ENCODING -1
SWIDTH 1005 0
DWIDTH 12 0
BBX 11 9 1 0
BITMAP
0FE0
3200
4200
4200
87C0
8400
8400
C400
7FC0
ENDCHAR
STARTCHAR caron
ENCODING -1
SWIDTH 568 0
DWIDTH 7 0
BBX 3 2 3 8
BITMAP
A0
40
ENDCHAR
STARTCHAR ogonek
ENCODING -1
SWIDTH 566 0
DWIDTH 7 0
BBX 3 2 2 -2
BITMAP
80
60
ENDCHAR
STARTCHAR hungarumlaut
ENCODING -1
SWIDTH 566 0
DWIDTH 7 0
BBX 5 2 2 8
BITMAP
48
90
ENDCHAR
STARTCHAR dotaccent
ENCODING -1
SWIDTH 566 0
DWIDTH 7 0
BBX 1 2 4 8
BITMAP
80
80
ENDCHAR
STARTCHAR breve
ENCODING -1
SWIDTH 566 0
DWIDTH 7 0
BBX 4 2 2 8
BITMAP
90
60
ENDCHAR
STARTCHAR tilde
ENCODING -1
SWIDTH 566 0
DWIDTH 7 0
BBX 5 2 2 8
BITMAP
68
B0
ENDCHAR
STARTCHAR circumflex
ENCODING -1
SWIDTH 566 0
DWIDTH 7 0
BBX 3 2 3 8
BITMAP
40
A0
ENDCHAR
STARTCHAR scaron
ENCODING -1
SWIDTH 489 0
DWIDTH 6 0
BBX 6 10 0 0
BITMAP
28
10
00
38
44
60
30
18
88
70
ENDCHAR
STARTCHAR ring
ENCODING -1
SWIDTH 567 0
DWIDTH 7 0
BBX 3 3 3 7
BITMAP
40
A0
40
ENDCHAR
STARTCHAR florin
ENCODING -1
SWIDTH 633 0
DWIDTH 8 0
BBX 6 10 1 -1
BITMAP
18
24
20
20
F8
40
40
40
80
80
ENDCHAR
STARTCHAR fraction
ENCODING -1
SWIDTH 117 0
DWIDTH 3 0
BBX 7 9 -2 0
BITMAP
02
04
08
08
10
20
20
40
80
ENDCHAR
STARTCHAR Scaron
ENCODING -1
SWIDTH 553 0
DWIDTH 7 0
BBX 6 11 1 0
BITMAP
28
10
00
38
44
40
30
18
08
88
70
ENDCHAR
STARTCHAR zcaron
ENCODING -1
SWIDTH 536 0
DWIDTH 7 0
BBX 6 10 1 0
BITMAP
28
10
00
7C
08
10
30
20
40
F8
ENDCHAR
ENDFONT
